<svg width="22" height="22" viewBox="0 0 22 22" fill="none" xmlns="http://www.w3.org/2000/svg">
<path d="M0.0491721 4.55717C0.190188 4.20463 0.590292 4.03316 0.942831 4.17417L3.35901 5.14064C3.85073 5.33733 4.39927 5.33733 4.89099 5.14064L6.28584 4.5827C7.10538 4.25489 8.01962 4.25489 8.83916 4.5827L10.234 5.14064C10.7257 5.33733 11.2743 5.33733 11.766 5.14064L13.1608 4.5827C13.9804 4.25489 14.8946 4.25489 15.7142 4.5827L17.109 5.14064C17.6007 5.33733 18.1493 5.33733 18.641 5.14064L21.0572 4.17417C21.4097 4.03316 21.8098 4.20463 21.9508 4.55717C22.0918 4.90971 21.9204 5.30981 21.5678 5.45083L19.1517 6.4173C18.3321 6.74511 17.4179 6.74511 16.5983 6.4173L15.2035 5.85936C14.7118 5.66267 14.1632 5.66267 13.6715 5.85936L12.2767 6.4173C11.4571 6.74511 10.5429 6.74511 9.72334 6.4173L8.32849 5.85936C7.83677 5.66267 7.28823 5.66267 6.79651 5.85936L5.40166 6.4173C4.58212 6.74511 3.66788 6.74511 2.84834 6.4173L0.432169 5.45083C0.07963 5.30981 -0.0918434 4.90971 0.0491721 4.55717ZM0.0491721 8.68217C0.190188 8.32963 0.590292 8.15816 0.942831 8.29917L3.35901 9.26564C3.85073 9.46233 4.39927 9.46233 4.89099 9.26564L6.28584 8.7077C7.10538 8.37989 8.01962 8.37989 8.83916 8.7077L10.234 9.26564C10.7257 9.46233 11.2743 9.46233 11.766 9.26564L13.1608 8.7077C13.9804 8.37989 14.8946 8.37989 15.7142 8.7077L17.109 9.26564C17.6007 9.46233 18.1493 9.46233 18.641 9.26564L21.0572 8.29917C21.4097 8.15816 21.8098 8.32963 21.9508 8.68217C22.0918 9.03471 21.9204 9.43481 21.5678 9.57583L19.1517 10.5423C18.3321 10.8701 17.4179 10.8701 16.5983 10.5423L15.2035 9.98436C14.7118 9.78767 14.1632 9.78767 13.6715 9.98436L12.2767 10.5423C11.4571 10.8701 10.5429 10.8701 9.72334 10.5423L8.32849 9.98436C7.83677 9.78767 7.28823 9.78767 6.79651 9.98436L5.40166 10.5423C4.58212 10.8701 3.66788 10.8701 2.84834 10.5423L0.432169 9.57583C0.07963 9.43481 -0.0918434 9.03471 0.0491721 8.68217ZM0.0491721 12.8072C0.190188 12.4546 0.590292 12.2832 0.942831 12.4242L3.35901 13.3906C3.85073 13.5873 4.39927 13.5873 4.89099 13.3906L6.28584 12.8327C7.10538 12.5049 8.01962 12.5049 8.83916 12.8327L10.234 13.3906C10.7257 13.5873 11.2743 13.5873 11.766 13.3906L13.1608 12.8327C13.9804 12.5049 14.8946 12.5049 15.7142 12.8327L17.109 13.3906C17.6007 13.5873 18.1493 13.5873 18.641 13.3906L21.0572 12.4242C21.4097 12.2832 21.8098 12.4546 21.9508 12.8072C22.0918 13.1597 21.9204 13.5598 21.5678 13.7008L19.1517 14.6673C18.3321 14.9951 17.4179 14.9951 16.5983 14.6673L15.2035 14.1094C14.7118 13.9127 14.1632 13.9127 13.6715 14.1094L12.2767 14.6673C11.4571 14.9951 10.5429 14.9951 9.72334 14.6673L8.32849 14.1094C7.83677 13.9127 7.28823 13.9127 6.79651 14.1094L5.40166 14.6673C4.58212 14.9951 3.66788 14.9951 2.84834 14.6673L0.432169 13.7008C0.07963 13.5598 -0.0918434 13.1597 0.0491721 12.8072ZM0.0491721 16.9322C0.190188 16.5796 0.590292 16.4082 0.942831 16.5492L3.35901 17.5156C3.85073 17.7123 4.39927 17.7123 4.89099 17.5156L6.28584 16.9577C7.10538 16.6299 8.01962 16.6299 8.83916 16.9577L10.234 17.5156C10.7257 17.7123 11.2743 17.7123 11.766 17.5156L13.1608 16.9577C13.9804 16.6299 14.8946 16.6299 15.7142 16.9577L17.109 17.5156C17.6007 17.7123 18.1493 17.7123 18.641 17.5156L21.0572 16.5492C21.4097 16.4082 21.8098 16.5796 21.9508 16.9322C22.0918 17.2847 21.9204 17.6848 21.5678 17.8258L19.1517 18.7923C18.3321 19.1201 17.4179 19.1201 16.5983 18.7923L15.2035 18.2344C14.7118 18.0377 14.1632 18.0377 13.6715 18.2344L12.2767 18.7923C11.4571 19.1201 10.5429 19.1201 9.72334 18.7923L8.32849 18.2344C7.83677 18.0377 7.28823 18.0377 6.79651 18.2344L5.40166 18.7923C4.58212 19.1201 3.66788 19.1201 2.84834 18.7923L0.432169 17.8258C0.07963 17.6848 -0.0918434 17.2847 0.0491721 16.9322Z" fill="black"/>
</svg>
