<svg width="22" height="22" viewBox="0 0 22 22" fill="none" xmlns="http://www.w3.org/2000/svg">
<path d="M17.1875 2.75C15.289 2.75 13.75 4.28902 13.75 6.1875C13.75 6.5672 13.4422 6.875 13.0625 6.875C12.6828 6.875 12.375 6.5672 12.375 6.1875C12.375 3.52963 14.5296 1.375 17.1875 1.375C19.8454 1.375 22 3.52963 22 6.1875C22 8.84537 19.8454 11 17.1875 11H0.6875C0.307804 11 0 10.6922 0 10.3125C0 9.9328 0.307804 9.625 0.6875 9.625H17.1875C19.086 9.625 20.625 8.08598 20.625 6.1875C20.625 4.28902 19.086 2.75 17.1875 2.75ZM7.5625 4.125C6.80311 4.125 6.1875 4.74061 6.1875 5.5C6.1875 5.8797 5.8797 6.1875 5.5 6.1875C5.1203 6.1875 4.8125 5.8797 4.8125 5.5C4.8125 3.98122 6.04372 2.75 7.5625 2.75C9.08128 2.75 10.3125 3.98122 10.3125 5.5C10.3125 7.01878 9.08128 8.25 7.5625 8.25H0.6875C0.307804 8.25 0 7.9422 0 7.5625C0 7.1828 0.307804 6.875 0.6875 6.875H7.5625C8.32189 6.875 8.9375 6.25939 8.9375 5.5C8.9375 4.74061 8.32189 4.125 7.5625 4.125ZM0 13.0625C0 12.6828 0.307804 12.375 0.6875 12.375H14.4948C16.773 12.375 18.6198 14.2218 18.6198 16.5C18.6198 18.7782 16.773 20.625 14.4948 20.625C12.2166 20.625 10.3698 18.7782 10.3698 16.5C10.3698 16.1203 10.6776 15.8125 11.0573 15.8125C11.437 15.8125 11.7448 16.1203 11.7448 16.5C11.7448 18.0188 12.976 19.25 14.4948 19.25C16.0136 19.25 17.2448 18.0188 17.2448 16.5C17.2448 14.9812 16.0136 13.75 14.4948 13.75H0.6875C0.307804 13.75 0 13.4422 0 13.0625Z" fill="black"/>
</svg>
